<svg class="diagram-root" style="background: #f5f6f6" xmlns="http://www.w3.org/2000/svg" xmlns:xlink="http://www.w3.org/1999/xlink"><style>.diagram-root { font-family: "Helvetica Neue", sans-serif; font-size: 12px; } .t { overflow: visible; } .t-bg { y: 40; fill: #fff;   } .th { fill: #005aa0;   } .tht { fill: #fff; font-size: 14px;  } .tf { fill: #323c46; overflow: visible; } .tf.pk { fill: #005aa0; font-weight: bold; } .tf.fk { font-weight: bold; } .ty { fill: #adb1b5; font-weight: normal; text-anchor: end; } .r { fill: transparent; stroke: #c3c3c3; stroke-width: 1; } .l { stroke: 1; } .i { fill: #c2c7ce; stroke: #c2c7ce; } .i.ix { fill: #afb3b6; stroke: #000; } .fa { fill: transparent; overflow: visible; } .fa .bg.hover { fill: #f7f7f7; } .c { cy: 12; r: 4; stroke: #d2d2dc; fill: #d2d2dc; } .hr { fill: transparent; stroke: #323c46; stroke-opacity: 0.035; stroke-width: 13; } .dc { stroke: #fa5a3c; fill: #fa5a3c; } .x { stroke: white; stroke-width: 1; } .hl .th { fill: #1b9bff; } .hl .tht {  } .fhl .bg { fill: #e7f4ff; } .fhls .bg {  } .r.hl { stroke: #1b9bff; } .dim { opacity: 0.25; }</style><g class="drawing-wrapper" transform="translate(15, -24) scale(1,1)"><g class="rs"><path d="M 440 702 m -1, 0 a 1,1 0 1,0 2,0 a 1,1 0 1,0 -2,0 M 440 702 m -0.5, 0 a 0.5,0.5 0 1,0 1,0 a 0.5,0.5 0 1,0 -1,0  M440 702 L440 702 428 702 M 440 708 m -1, 0 a 1,1 0 1,0 2,0 a 1,1 0 1,0 -2,0 M 440 708 m -0.5, 0 a 0.5,0.5 0 1,0 1,0 a 0.5,0.5 0 1,0 -1,0  M440 708 L440 708 433 702 440 696 M 440 696 m -1, 0 a 1,1 0 1,0 2,0 a 1,1 0 1,0 -2,0 M 440 696 m -0.5, 0 a 0.5,0.5 0 1,0 1,0 a 0.5,0.5 0 1,0 -1,0  M428 702 Q 372.71 702, 317.41 539.5 T 206.82 377 M 194.82 377 m -1, 0 a 1,1 0 1,0 2,0 a 1,1 0 1,0 -2,0 M 194.82 377 m -0.5, 0 a 0.5,0.5 0 1,0 1,0 a 0.5,0.5 0 1,0 -1,0  M194.82 377 L194.82 377 206.82 377 M200.82 383 L200.82 383 200.82 371" id="h1139284389" class="r"></path><path d="M 578.04 727 m -1, 0 a 1,1 0 1,0 2,0 a 1,1 0 1,0 -2,0 M 578.04 727 m -0.5, 0 a 0.5,0.5 0 1,0 1,0 a 0.5,0.5 0 1,0 -1,0  M578.04 727 L578.04 727 590.04 727 M 578.04 733 m -1, 0 a 1,1 0 1,0 2,0 a 1,1 0 1,0 -2,0 M 578.04 733 m -0.5, 0 a 0.5,0.5 0 1,0 1,0 a 0.5,0.5 0 1,0 -1,0  M578.04 733 L578.04 733 585.04 727 578.04 721 M 578.04 721 m -1, 0 a 1,1 0 1,0 2,0 a 1,1 0 1,0 -2,0 M 578.04 721 m -0.5, 0 a 0.5,0.5 0 1,0 1,0 a 0.5,0.5 0 1,0 -1,0  M590.04 727 Q 638.53 727, 687.02 675 T 784 623 M 796 623 m -1, 0 a 1,1 0 1,0 2,0 a 1,1 0 1,0 -2,0 M 796 623 m -0.5, 0 a 0.5,0.5 0 1,0 1,0 a 0.5,0.5 0 1,0 -1,0  M796 623 L796 623 784 623 M790 629 L790 629 790 617" id="h1607168654" class="r"></path><path d="M 578.04 514 m -1, 0 a 1,1 0 1,0 2,0 a 1,1 0 1,0 -2,0 M 578.04 514 m -0.5, 0 a 0.5,0.5 0 1,0 1,0 a 0.5,0.5 0 1,0 -1,0  M578.04 514 L578.04 514 590.04 514 M 578.04 520 m -1, 0 a 1,1 0 1,0 2,0 a 1,1 0 1,0 -2,0 M 578.04 520 m -0.5, 0 a 0.5,0.5 0 1,0 1,0 a 0.5,0.5 0 1,0 -1,0  M578.04 520 L578.04 520 585.04 514 578.04 508 M 578.04 508 m -1, 0 a 1,1 0 1,0 2,0 a 1,1 0 1,0 -2,0 M 578.04 508 m -0.5, 0 a 0.5,0.5 0 1,0 1,0 a 0.5,0.5 0 1,0 -1,0  M590.04 514 Q 638.53 514, 687.02 568.5 T 784 623 M 796 623 m -1, 0 a 1,1 0 1,0 2,0 a 1,1 0 1,0 -2,0 M 796 623 m -0.5, 0 a 0.5,0.5 0 1,0 1,0 a 0.5,0.5 0 1,0 -1,0  M796 623 L796 623 784 623 M790 629 L790 629 790 617" id="h1397587031" class="r"></path><path d="M 440 539 m -1, 0 a 1,1 0 1,0 2,0 a 1,1 0 1,0 -2,0 M 440 539 m -0.5, 0 a 0.5,0.5 0 1,0 1,0 a 0.5,0.5 0 1,0 -1,0  M440 539 L440 539 428 539 M 440 545 m -1, 0 a 1,1 0 1,0 2,0 a 1,1 0 1,0 -2,0 M 440 545 m -0.5, 0 a 0.5,0.5 0 1,0 1,0 a 0.5,0.5 0 1,0 -1,0  M440 545 L440 545 433 539 440 533 M 440 533 m -1, 0 a 1,1 0 1,0 2,0 a 1,1 0 1,0 -2,0 M 440 533 m -0.5, 0 a 0.5,0.5 0 1,0 1,0 a 0.5,0.5 0 1,0 -1,0  M428 539 Q 372.71 539, 317.41 458 T 206.82 377 M 194.82 377 m -1, 0 a 1,1 0 1,0 2,0 a 1,1 0 1,0 -2,0 M 194.82 377 m -0.5, 0 a 0.5,0.5 0 1,0 1,0 a 0.5,0.5 0 1,0 -1,0  M194.82 377 L194.82 377 206.82 377 M200.82 383 L200.82 383 200.82 371" id="h2286254435" class="r"></path><path d="M 440 319 m -1, 0 a 1,1 0 1,0 2,0 a 1,1 0 1,0 -2,0 M 440 319 m -0.5, 0 a 0.5,0.5 0 1,0 1,0 a 0.5,0.5 0 1,0 -1,0  M440 319 L440 319 428 319 M 440 325 m -1, 0 a 1,1 0 1,0 2,0 a 1,1 0 1,0 -2,0 M 440 325 m -0.5, 0 a 0.5,0.5 0 1,0 1,0 a 0.5,0.5 0 1,0 -1,0  M440 325 L440 325 433 319 440 313 M 440 313 m -1, 0 a 1,1 0 1,0 2,0 a 1,1 0 1,0 -2,0 M 440 313 m -0.5, 0 a 0.5,0.5 0 1,0 1,0 a 0.5,0.5 0 1,0 -1,0  M428 319 Q 372.71 319, 317.41 348 T 206.82 377 M 194.82 377 m -1, 0 a 1,1 0 1,0 2,0 a 1,1 0 1,0 -2,0 M 194.82 377 m -0.5, 0 a 0.5,0.5 0 1,0 1,0 a 0.5,0.5 0 1,0 -1,0  M194.82 377 L194.82 377 206.82 377 M200.82 383 L200.82 383 200.82 371" id="h3177548053" class="r"></path><path d="M 437 111 m -1, 0 a 1,1 0 1,0 2,0 a 1,1 0 1,0 -2,0 M 437 111 m -0.5, 0 a 0.5,0.5 0 1,0 1,0 a 0.5,0.5 0 1,0 -1,0  M437 111 L437 111 425 111 M 437 117 m -1, 0 a 1,1 0 1,0 2,0 a 1,1 0 1,0 -2,0 M 437 117 m -0.5, 0 a 0.5,0.5 0 1,0 1,0 a 0.5,0.5 0 1,0 -1,0  M437 117 L437 117 430 111 437 105 M 437 105 m -1, 0 a 1,1 0 1,0 2,0 a 1,1 0 1,0 -2,0 M 437 105 m -0.5, 0 a 0.5,0.5 0 1,0 1,0 a 0.5,0.5 0 1,0 -1,0  M425 111 Q 370.46 111, 315.91 244 T 206.82 377 M 194.82 377 m -1, 0 a 1,1 0 1,0 2,0 a 1,1 0 1,0 -2,0 M 194.82 377 m -0.5, 0 a 0.5,0.5 0 1,0 1,0 a 0.5,0.5 0 1,0 -1,0  M194.82 377 L194.82 377 206.82 377 M200.82 383 L200.82 383 200.82 371" id="h3000826536" class="r"></path></g><g class="hrs"></g><g class="ts"><svg width="131.14" height="150" x="440" y="262" id="h2472833127" class="t"><rect height="40" width="131.14" class="th"></rect><text x="13" y="25" class="tht">salaries</text><rect height="110" width="131.14" class="t-bg"></rect><text x="13" y="61" class="tf fk">emp_no<tspan x="118.13999999999999" class="ty">INT</tspan></text><text x="13" y="86" class="tf">salary<tspan x="118.13999999999999" class="ty">MONEY</tspan></text><text x="13" y="111" class="tf">from_date<tspan x="118.13999999999999" class="ty">DATE</tspan></text><text x="13" y="136" class="tf">to_date<tspan x="118.13999999999999" class="ty">DATE</tspan></text></svg><svg width="150.47" height="150" x="437" y="54" id="h311790747" class="t"><rect height="40" width="150.47" class="th"></rect><text x="13" y="25" class="tht">titles</text><rect height="110" width="150.47" class="t-bg"></rect><text x="13" y="61" class="tf fk">emp_no<tspan x="137.47" class="ty">INT</tspan></text><text x="13" y="86" class="tf">title<tspan x="137.47" class="ty">VARCHAR(255)</tspan></text><text x="13" y="111" class="tf">from_date<tspan x="137.47" class="ty">DATE</tspan></text><text x="13" y="136" class="tf">to_date<tspan x="137.47" class="ty">DATE</tspan></text></svg><svg width="138.04" height="150" x="440" y="457" id="h1676682957" class="t"><rect height="40" width="138.04" class="th"></rect><text x="13" y="25" class="tht">dept_manager</text><rect height="110" width="138.04" class="t-bg"></rect><text x="13" y="61" class="tf fk">dept_no<tspan x="125.03999999999999" class="ty">CHAR(4)</tspan></text><text x="13" y="86" class="tf fk">emp_no<tspan x="125.03999999999999" class="ty">INT</tspan></text><text x="13" y="111" class="tf">from_date<tspan x="125.03999999999999" class="ty">DATE</tspan></text><text x="13" y="136" class="tf">to_date<tspan x="125.03999999999999" class="ty">DATE</tspan></text></svg><svg width="138.04" height="150" x="440" y="645" id="h1090417462" class="t"><rect height="40" width="138.04" class="th"></rect><text x="13" y="25" class="tht">dept_emp</text><rect height="110" width="138.04" class="t-bg"></rect><text x="13" y="61" class="tf fk">emp_no<tspan x="125.03999999999999" class="ty">INT</tspan></text><text x="13" y="86" class="tf fk">dept_no<tspan x="125.03999999999999" class="ty">CHAR(4)</tspan></text><text x="13" y="111" class="tf">from_date<tspan x="125.03999999999999" class="ty">DATE</tspan></text><text x="13" y="136" class="tf">to_date<tspan x="125.03999999999999" class="ty">DATE</tspan></text></svg><svg width="187.82" height="200" x="7" y="320" id="h1639608377" class="t"><rect height="40" width="187.82" class="th"></rect><text x="13" y="25" class="tht">employees</text><rect height="160" width="187.82" class="t-bg"></rect><text x="13" y="61" class="tf pk">emp_no<tspan x="174.82" class="ty">INT</tspan></text><path d="M7,14A2,2 0 0,1 5,12A2,2 0 0,1 7,10A2,2 0 0,1 9,12A2,2 0 0,1 7,14M12.65,10C11.83,7.67 9.61,6 7, 6A6, 6 0 0, 0 1, 12A6, 6 0 0, 0 7, 18C9.61, 18 11.83, 16.33 12.65, 14H17V18H21V14H23V10H12.65Z" class="i pk" transform="translate(135.489921875, 48) scale(0.65)"></path><text x="13" y="86" class="tf">birth_date<tspan x="174.82" class="ty">DATE</tspan></text><text x="13" y="111" class="tf">first_name<tspan x="174.82" class="ty">VARCHAR(255)</tspan></text><text x="13" y="136" class="tf">last_name<tspan x="174.82" class="ty">VARCHAR(255)</tspan></text><text x="13" y="161" class="tf">gender<tspan x="174.82" class="ty">CHAR(1)</tspan></text><text x="13" y="186" class="tf">hire_date<tspan x="174.82" class="ty">DATE</tspan></text></svg><svg width="191.85" height="100" x="796" y="566" id="h475896179" class="t"><rect height="40" width="191.85" class="th"></rect><text x="13" y="25" class="tht">departments</text><rect height="60" width="191.85" class="t-bg"></rect><text x="13" y="61" class="tf pk">dept_no<tspan x="178.85" class="ty">CHAR(4)</tspan></text><path d="M7,14A2,2 0 0,1 5,12A2,2 0 0,1 7,10A2,2 0 0,1 9,12A2,2 0 0,1 7,14M12.65,10C11.83,7.67 9.61,6 7, 6A6, 6 0 0, 0 1, 12A6, 6 0 0, 0 7, 18C9.61, 18 11.83, 16.33 12.65, 14H17V18H21V14H23V10H12.65Z" class="i pk" transform="translate(110.18203125, 48) scale(0.65)"></path><text x="13" y="86" class="tf">dept_name<tspan x="178.85" class="ty">VARCHAR(255)</tspan></text></svg></g></g></svg>